<svg width="32" height="32" viewBox="0 0 32 32" fill="none" xmlns="http://www.w3.org/2000/svg">
<path d="M23.9653 7.21068L26.7893 10.0333L23.9653 7.21068ZM25.7813 4.72401L18.1453 12.36C17.7507 12.754 17.4817 13.256 17.372 13.8027L16.6666 17.3333L20.1973 16.6267C20.744 16.5173 21.2453 16.2493 21.64 15.8547L29.276 8.21868C29.5054 7.98922 29.6874 7.7168 29.8116 7.417C29.9358 7.11719 29.9997 6.79586 29.9997 6.47135C29.9997 6.14684 29.9358 5.8255 29.8116 5.5257C29.6874 5.22589 29.5054 4.95348 29.276 4.72401C29.0465 4.49455 28.7741 4.31253 28.4743 4.18835C28.1745 4.06416 27.8531 4.00024 27.5286 4.00024C27.2041 4.00024 26.8828 4.06416 26.583 4.18835C26.2832 4.31253 26.0108 4.49455 25.7813 4.72401V4.72401Z" stroke="black" stroke-opacity="0.69" stroke-width="2" stroke-linecap="round" stroke-linejoin="round"/>
<path d="M27.3333 20V24C27.3333 24.7073 27.0524 25.3855 26.5523 25.8856C26.0522 26.3857 25.3739 26.6667 24.6666 26.6667H9.99998C9.29274 26.6667 8.61446 26.3857 8.11436 25.8856C7.61426 25.3855 7.33331 24.7073 7.33331 24V9.33335C7.33331 8.6261 7.61426 7.94782 8.11436 7.44773C8.61446 6.94763 9.29274 6.66668 9.99998 6.66668H14" stroke="black" stroke-opacity="0.69" stroke-width="2" stroke-linecap="round" stroke-linejoin="round"/>
</svg>
