<svg width="32" height="32" viewBox="0 0 32 32" fill="none" xmlns="http://www.w3.org/2000/svg">
<path d="M11.448 24L16 28.552L20.552 24H25.3333C26.804 24 28 22.804 28 21.3333V5.33333C28 3.86266 26.804 2.66666 25.3333 2.66666H6.66667C5.196 2.66666 4 3.86266 4 5.33333V21.3333C4 22.804 5.196 24 6.66667 24H11.448ZM6.66667 5.33333H25.3333V21.3333H19.448L16 24.7813L12.552 21.3333H6.66667V5.33333Z" fill="black" fill-opacity="0.69"/>
<path d="M16.6387 9.62533L10.0027 16.2507V18.6493H12.4027L19.036 12.024L16.6387 9.62533ZM19.5974 6.66533L21.9973 9.06533L20.1707 10.892L17.7707 8.49333L19.5974 6.66533Z" fill="black" fill-opacity="0.69"/>
</svg>
