<svg width="20" height="20" viewBox="0 0 20 20" fill="none" xmlns="http://www.w3.org/2000/svg">
<path d="M19.3475 9.47203C19.4375 9.18074 19.4825 8.87973 19.4825 8.57387C19.4825 7.88689 19.25 7.22662 18.83 6.68772C18.92 6.39642 18.965 6.09541 18.965 5.78955C18.965 5.10258 18.7325 4.4423 18.3125 3.9034C18.4025 3.61211 18.4475 3.3111 18.4475 3.00524C18.4475 1.75266 17.68 0.623882 16.49 0.131104C16.2808 0.0435414 16.0553 -0.00108717 15.8275 2.01107e-05H0.8C0.3575 2.01107e-05 0 0.347149 0 0.776813V9.61283C0 10.0425 0.3575 10.3896 0.8 10.3896H4.0325L6.1775 17.9342C6.5225 19.1504 7.6725 20 8.9725 20C9.715 20 10.4075 19.7136 10.92 19.1892C11.4325 18.6673 11.695 17.9828 11.6575 17.2618L11.5075 14.2784H17.505C17.8075 14.2784 18.1025 14.2008 18.3625 14.0527C19.3725 13.4822 20 12.4481 20 11.3582C20 10.6712 19.7675 10.0109 19.3475 9.47203ZM1.8 8.63941V1.74538H3.825V8.63941H1.8ZM17.48 12.5331H9.62L9.86 17.3492C9.875 17.6381 9.7425 17.9099 9.495 18.0896C9.3425 18.1988 9.155 18.2546 8.9675 18.2522C8.72795 18.25 8.49563 18.1723 8.3054 18.0309C8.11517 17.8896 7.9773 17.6921 7.9125 17.4681L5.425 8.71709V1.74538H15.81C16.0599 1.85412 16.2721 2.03064 16.4211 2.25372C16.5701 2.47679 16.6496 2.73692 16.65 3.00281C16.65 3.23827 16.5925 3.4616 16.4775 3.66551L16.13 4.28209L16.6775 4.74331C16.8316 4.87291 16.9551 5.03322 17.0397 5.21335C17.1243 5.39347 17.1678 5.58917 17.1675 5.78712C17.1675 6.02259 17.11 6.24592 16.995 6.44982L16.6475 7.0664L17.195 7.52763C17.3491 7.65722 17.4726 7.81754 17.5572 7.99766C17.6418 8.17779 17.6853 8.37349 17.685 8.57144C17.685 8.8069 17.6275 9.03023 17.5125 9.23414L17.1625 9.85315L17.71 10.3144C17.8641 10.444 17.9876 10.6043 18.0722 10.7844C18.1568 10.9645 18.2003 11.1602 18.2 11.3582C18.2 11.8218 17.925 12.2685 17.48 12.5331Z" fill="#5DA649"/>
</svg>
