<svg width="47" height="47" viewBox="0 0 47 47" fill="none" xmlns="http://www.w3.org/2000/svg">
<path d="M23.5 25.4583C26.7447 25.4583 29.375 22.828 29.375 19.5833C29.375 16.3386 26.7447 13.7083 23.5 13.7083C20.2553 13.7083 17.625 16.3386 17.625 19.5833C17.625 22.828 20.2553 25.4583 23.5 25.4583Z" stroke="#5DA649" stroke-width="2" stroke-linecap="round" stroke-linejoin="round"/>
<path d="M23.4999 3.91666C19.3449 3.91666 15.36 5.56725 12.4219 8.50532C9.48384 11.4434 7.83325 15.4283 7.83325 19.5833C7.83325 23.2885 8.6205 25.7129 10.7708 28.3958L23.4999 43.0833L36.2291 28.3958C38.3793 25.7129 39.1666 23.2885 39.1666 19.5833C39.1666 15.4283 37.516 11.4434 34.5779 8.50532C31.6399 5.56725 27.655 3.91666 23.4999 3.91666V3.91666Z" stroke="#5DA649" stroke-width="2" stroke-linecap="round" stroke-linejoin="round"/>
</svg>
