<svg width="42" height="42" viewBox="0 0 42 42" fill="none" xmlns="http://www.w3.org/2000/svg">
<path d="M21 26.25C23.905 26.25 26.2325 23.905 26.2325 21L26.25 10.5C26.25 7.595 23.905 5.25 21 5.25C18.095 5.25 15.75 7.595 15.75 10.5V21C15.75 23.905 18.095 26.25 21 26.25ZM18.9 10.325C18.9 9.17 19.845 8.225 21 8.225C22.155 8.225 23.1 9.17 23.1 10.325L23.0825 21.175C23.0825 22.33 22.155 23.275 21 23.275C19.845 23.275 18.9 22.33 18.9 21.175V10.325ZM30.275 21C30.275 26.25 25.83 29.925 21 29.925C16.17 29.925 11.725 26.25 11.725 21H8.75C8.75 26.9675 13.51 31.9025 19.25 32.76V38.5H22.75V32.76C28.49 31.92 33.25 26.985 33.25 21H30.275Z" fill="#797979"/>
</svg>
