<svg width="20" height="20" viewBox="0 0 20 20" fill="none" xmlns="http://www.w3.org/2000/svg">
<path d="M19.3475 10.5279C19.7675 9.98909 20 9.32897 20 8.64217C20 7.55249 19.3725 6.52107 18.3625 5.94589C18.1025 5.79784 17.8064 5.71992 17.505 5.72019H11.51L11.66 2.73755C11.695 2.01676 11.4325 1.33238 10.9225 0.810598C10.6722 0.553417 10.3703 0.348793 10.0353 0.209374C9.70032 0.0699547 9.33946 -0.00129842 8.975 1.79108e-05C7.675 1.79108e-05 6.525 0.849429 6.18 2.0653L4.0325 9.61292H0.8C0.3575 9.61292 0 9.95997 0 10.3895V19.2234C0 19.653 0.3575 20 0.8 20H15.8325C16.0625 20 16.2875 19.9563 16.495 19.8689C17.685 19.3763 18.4525 18.2478 18.4525 16.9955C18.4525 16.6897 18.4075 16.3888 18.3175 16.0976C18.7375 15.5588 18.97 14.8987 18.97 14.2119C18.97 13.9061 18.925 13.6052 18.835 13.3139C19.255 12.7752 19.4875 12.115 19.4875 11.4282C19.4825 11.1224 19.4375 10.8191 19.3475 10.5279ZM1.8 18.2526V11.3603H3.825V18.2526H1.8ZM17.71 9.68573L17.1625 10.1468L17.51 10.7633C17.6245 10.9663 17.6838 11.1943 17.6825 11.4258C17.6825 11.8262 17.5025 12.2073 17.1925 12.4694L16.645 12.9305L16.9925 13.5469C17.107 13.75 17.1663 13.978 17.165 14.2094C17.165 14.6099 16.985 14.9909 16.675 15.253L16.1275 15.7141L16.475 16.3305C16.5895 16.5336 16.6488 16.7616 16.6475 16.9931C16.6475 17.5367 16.3175 18.0269 15.8075 18.2502H5.425V11.2826L7.9125 2.53369C7.97664 2.30945 8.11433 2.11161 8.30471 1.97016C8.49508 1.8287 8.72777 1.75135 8.9675 1.7498C9.1575 1.7498 9.345 1.8032 9.495 1.91241C9.7425 2.092 9.875 2.36381 9.86 2.65261L9.62 7.46755H17.48C17.925 7.73208 18.2 8.17863 18.2 8.64217C18.2 9.0426 18.02 9.4212 17.71 9.68573Z" fill="#5DA649"/>
</svg>
