<svg width="42" height="42" viewBox="0 0 42 42" fill="none" xmlns="http://www.w3.org/2000/svg">
<g clip-path="url(#clip0_222_256)">
<path d="M15.7554 14.4375C15.7554 15.4818 15.3405 16.4833 14.6021 17.2217C13.8637 17.9602 12.8622 18.375 11.8179 18.375C10.7736 18.375 9.77206 17.9602 9.03364 17.2217C8.29521 16.4833 7.88037 15.4818 7.88037 14.4375C7.88037 13.3932 8.29521 12.3917 9.03364 11.6533C9.77206 10.9148 10.7736 10.5 11.8179 10.5C12.8622 10.5 13.8637 10.9148 14.6021 11.6533C15.3405 12.3917 15.7554 13.3932 15.7554 14.4375Z" fill="#797979"/>
<path d="M3.9375 5.25C2.89321 5.25 1.89169 5.66484 1.15327 6.40327C0.414843 7.14169 0 8.14321 0 9.1875L0 32.8125C0 33.8568 0.414843 34.8583 1.15327 35.5967C1.89169 36.3352 2.89321 36.75 3.9375 36.75H38.0625C39.1068 36.75 40.1083 36.3352 40.8467 35.5967C41.5852 34.8583 42 33.8568 42 32.8125V9.1875C42 8.14321 41.5852 7.14169 40.8467 6.40327C40.1083 5.66484 39.1068 5.25 38.0625 5.25H3.9375ZM38.0625 7.875C38.4106 7.875 38.7444 8.01328 38.9906 8.25942C39.2367 8.50556 39.375 8.8394 39.375 9.1875V24.9375L29.4656 19.8266C29.2195 19.7033 28.9407 19.6605 28.6689 19.7043C28.3971 19.7482 28.146 19.8763 27.951 20.0707L18.2122 29.8095L11.2297 25.158C10.9776 24.9902 10.6753 24.9147 10.3738 24.9443C10.0724 24.974 9.79055 25.107 9.576 25.3207L2.63025 31.5V32.9175C2.62711 32.8826 2.62536 32.8476 2.625 32.8125V9.1875C2.625 8.8394 2.76328 8.50556 3.00942 8.25942C3.25556 8.01328 3.5894 7.875 3.9375 7.875H38.0625Z" fill="#797979"/>
</g>
<defs>
<clipPath id="clip0_222_256">
<rect width="42" height="42" fill="white"/>
</clipPath>
</defs>
</svg>
